<?xml version="1.0" encoding="UTF-8" standalone="no"?>
<!-- Created with Inkscape (http://www.inkscape.org/) -->

<svg
   width="258.29001mm"
   height="63.5mm"
   viewBox="0 0 258.29001 63.5"
   version="1.1"
   id="svg5"
   inkscape:version="1.1 (c68e22c387, 2021-05-23)"
   sodipodi:docname="Logo-text-path.svg"
   inkscape:export-filename="D:\Archives\Project Archives\Icepack\Misc\Logo-gradient-borderless.png"
   inkscape:export-xdpi="25.600004"
   inkscape:export-ydpi="25.600004"
   xmlns:inkscape="http://www.inkscape.org/namespaces/inkscape"
   xmlns:sodipodi="http://sodipodi.sourceforge.net/DTD/sodipodi-0.dtd"
   xmlns:xlink="http://www.w3.org/1999/xlink"
   xmlns="http://www.w3.org/2000/svg"
   xmlns:svg="http://www.w3.org/2000/svg">
  <sodipodi:namedview
     id="namedview7"
     pagecolor="#ffffff"
     bordercolor="#666666"
     borderopacity="1.0"
     inkscape:pageshadow="2"
     inkscape:pageopacity="0.0"
     inkscape:pagecheckerboard="0"
     inkscape:document-units="mm"
     showgrid="true"
     inkscape:zoom="0.37059484"
     inkscape:cx="330.54966"
     inkscape:cy="39.126287"
     inkscape:window-width="1920"
     inkscape:window-height="1009"
     inkscape:window-x="-8"
     inkscape:window-y="-1"
     inkscape:window-maximized="1"
     inkscape:current-layer="layer1"
     width="300mm"
     fit-margin-top="0"
     fit-margin-left="0"
     fit-margin-right="0"
     fit-margin-bottom="0">
    <inkscape:grid
       type="xygrid"
       id="grid275"
       originx="-18.520833"
       originy="-23.8125" />
  </sodipodi:namedview>
  <defs
     id="defs2">
    <linearGradient
       inkscape:collect="always"
       id="linearGradient19990">
      <stop
         style="stop-color:#3b1474;stop-opacity:1"
         offset="0"
         id="stop19986" />
      <stop
         style="stop-color:#0a4a6d;stop-opacity:1"
         offset="1"
         id="stop19988" />
    </linearGradient>
    <rect
       x="260"
       y="20"
       width="850"
       height="200"
       id="rect6466" />
    <linearGradient
       inkscape:collect="always"
       id="linearGradient3523">
      <stop
         style="stop-color:#00556b;stop-opacity:1"
         offset="0"
         id="stop3519" />
      <stop
         style="stop-color:#4d0077;stop-opacity:1"
         offset="1"
         id="stop3521" />
    </linearGradient>
    <linearGradient
       inkscape:collect="always"
       id="linearGradient2535">
      <stop
         style="stop-color:#00bfef;stop-opacity:1"
         offset="0"
         id="stop2531" />
      <stop
         style="stop-color:#b42bff;stop-opacity:1"
         offset="1"
         id="stop2533" />
    </linearGradient>
    <linearGradient
       inkscape:collect="always"
       xlink:href="#linearGradient2535"
       id="linearGradient2537"
       x1="18.520834"
       y1="87.3125"
       x2="82.020836"
       y2="23.8125"
       gradientUnits="userSpaceOnUse" />
    <linearGradient
       inkscape:collect="always"
       xlink:href="#linearGradient3523"
       id="linearGradient3103"
       x1="18.520834"
       y1="87.3125"
       x2="82.020836"
       y2="23.8125"
       gradientUnits="userSpaceOnUse" />
    <linearGradient
       inkscape:collect="always"
       xlink:href="#linearGradient19990"
       id="linearGradient19992"
       x1="281.37952"
       y1="38.551807"
       x2="281.37952"
       y2="178.5518"
       gradientUnits="userSpaceOnUse" />
  </defs>
  <g
     inkscape:label="Layer 1"
     inkscape:groupmode="layer"
     id="layer1"
     style="display:inline"
     transform="translate(-18.520833,-23.8125)">
    <path
       style="display:inline;fill:url(#linearGradient2537);fill-opacity:1;stroke:#000000;stroke-width:0.264583;stroke-linecap:butt;stroke-linejoin:miter;stroke-miterlimit:4;stroke-dasharray:0, 2.91041;stroke-dashoffset:0;stroke-opacity:1"
       d="M 18.520833,87.312499 39.6875,66.145832 H 60.854166 V 44.979166 L 82.020832,23.8125 V 66.145832 L 60.854166,87.312499 Z"
       id="path4065" />
    <path
       style="display:inline;fill:url(#linearGradient3103);fill-opacity:1;stroke:#000000;stroke-width:0.264583;stroke-linecap:butt;stroke-linejoin:miter;stroke-miterlimit:4;stroke-dasharray:0, 2.91041;stroke-dashoffset:0;stroke-opacity:1"
       d="M 18.520833,87.312499 39.6875,66.145832 V 44.979166 H 60.854166 L 82.020832,23.8125 H 39.6875 L 18.520833,44.979166 Z"
       id="path4335" />
    <g
       aria-label="ICEPACK"
       transform="matrix(0.26458333,0,0,0.26458333,26.093335,26.841501)"
       id="text6464"
       style="font-size:160px;line-height:1.25;letter-spacing:4px;white-space:pre;shape-inside:url(#rect6466);fill:url(#linearGradient19992)">
      <path
         d="M 274.375,165.57906 V 51.360311 h 24.21875 V 165.57906 Z"
         style="font-weight:bold;font-family:'Open Sans';-inkscape-font-specification:'Open Sans Bold'"
         id="path57591" />
      <path
         d="m 379.85937,69.875936 q -6.95312,0 -12.34375,2.734375 -5.3125,2.65625 -8.98437,7.734375 -3.59375,5.078125 -5.46875,12.265625 -1.875,7.1875 -1.875,16.171879 0,12.10937 2.96875,20.70312 3.04687,8.51563 9.375,13.04688 6.32812,4.45312 16.32812,4.45312 6.95313,0 13.90625,-1.5625 7.03125,-1.5625 15.23438,-4.45312 v 20.3125 q -7.57813,3.125 -14.92188,4.45312 -7.34375,1.40625 -16.48437,1.40625 -17.65625,0 -29.0625,-7.26562 -11.32813,-7.34375 -16.79688,-20.46875 -5.46875,-13.20313 -5.46875,-30.78125 0,-12.968754 3.51563,-23.750004 3.51562,-10.78125 10.3125,-18.671875 6.79687,-7.890625 16.79687,-12.1875 10,-4.296875 22.96875,-4.296875 8.51563,0 17.03125,2.1875 8.59375,2.109375 16.40625,5.859375 l -7.8125,19.6875 q -6.40625,-3.046875 -12.89062,-5.3125 -6.48438,-2.265625 -12.73438,-2.265625 z"
         style="font-weight:bold;font-family:'Open Sans';-inkscape-font-specification:'Open Sans Bold'"
         id="path57593" />
      <path
         d="M 503.07812,165.57906 H 437.29687 V 51.360311 h 65.78125 v 19.84375 h -41.5625 v 25.078125 h 38.67188 v 19.843754 h -38.67188 v 29.45312 h 41.5625 z"
         style="font-weight:bold;font-family:'Open Sans';-inkscape-font-specification:'Open Sans Bold'"
         id="path57595" />
      <path
         d="m 567.39062,51.360311 q 22.10938,0 32.26563,9.53125 10.15625,9.453125 10.15625,26.09375 0,7.5 -2.26563,14.374999 -2.26562,6.79688 -7.42187,12.10938 -5.07813,5.3125 -13.59375,8.4375 -8.51563,3.04687 -21.01563,3.04687 H 555.125 v 40.625 H 530.90625 V 51.360311 Z m -1.25,19.84375 H 555.125 v 33.906249 h 7.96875 q 6.79687,0 11.79687,-1.79687 5,-1.79688 7.73438,-5.625004 2.73437,-3.828125 2.73437,-9.84375 0,-8.4375 -4.6875,-12.5 -4.6875,-4.140625 -14.53125,-4.140625 z"
         style="font-weight:bold;font-family:'Open Sans';-inkscape-font-specification:'Open Sans Bold'"
         id="path57597" />
      <path
         d="m 705.29687,165.57906 -8.28125,-27.1875 H 655.375 l -8.28125,27.1875 H 621 L 661.3125,50.891561 h 29.60937 l 40.46875,114.687499 z m -14.0625,-47.5 -8.28125,-26.562499 q -0.78125,-2.65625 -2.10937,-6.796875 -1.25,-4.21875 -2.57813,-8.515625 -1.25,-4.375 -2.03125,-7.578125 -0.78125,3.203125 -2.1875,7.96875 -1.32812,4.6875 -2.57812,8.90625 -1.25,4.21875 -1.79688,6.015625 l -8.20312,26.562499 z"
         style="font-weight:bold;font-family:'Open Sans';-inkscape-font-specification:'Open Sans Bold'"
         id="path57599" />
      <path
         d="m 798.28125,69.875936 q -6.95313,0 -12.34375,2.734375 -5.3125,2.65625 -8.98438,7.734375 -3.59375,5.078125 -5.46875,12.265625 -1.875,7.1875 -1.875,16.171879 0,12.10937 2.96875,20.70312 3.04688,8.51563 9.375,13.04688 6.32813,4.45312 16.32813,4.45312 6.95312,0 13.90625,-1.5625 7.03125,-1.5625 15.23437,-4.45312 v 20.3125 q -7.57812,3.125 -14.92187,4.45312 -7.34375,1.40625 -16.48438,1.40625 -17.65625,0 -29.0625,-7.26562 -11.32812,-7.34375 -16.79687,-20.46875 -5.46875,-13.20313 -5.46875,-30.78125 0,-12.968754 3.51562,-23.750004 3.51563,-10.78125 10.3125,-18.671875 6.79688,-7.890625 16.79688,-12.1875 10,-4.296875 22.96875,-4.296875 8.51562,0 17.03125,2.1875 8.59375,2.109375 16.40625,5.859375 l -7.8125,19.6875 q -6.40625,-3.046875 -12.89063,-5.3125 -6.48437,-2.265625 -12.73437,-2.265625 z"
         style="font-weight:bold;font-family:'Open Sans';-inkscape-font-specification:'Open Sans Bold'"
         id="path57601" />
      <path
         d="m 947.59375,165.57906 h -27.5 l -29.92188,-48.125 -10.23437,7.34375 v 40.78125 H 855.71875 V 51.360311 h 24.21875 v 52.265629 q 2.42187,-3.35938 4.76562,-6.718754 2.34375,-3.359375 4.76563,-6.71875 l 30.9375,-38.828125 h 26.875 L 907.4375,101.90719 Z"
         style="font-weight:bold;font-family:'Open Sans';-inkscape-font-specification:'Open Sans Bold'"
         id="path57603" />
    </g>
  </g>
</svg>
